<svg width="17" height="17" viewBox="0 0 17 17" fill="none" xmlns="http://www.w3.org/2000/svg">
<path d="M0.898438 8.50004C0.898438 6.50689 1.69021 4.59538 3.09958 3.18601C4.50895 1.77664 6.42047 0.984863 8.41361 0.984863C10.4068 0.984863 12.3183 1.77664 13.7276 3.18601C15.137 4.59538 15.9288 6.50689 15.9288 8.50004V13.2816C15.9288 14.0782 15.9288 14.4746 15.8104 14.7931C15.7163 15.0454 15.569 15.2746 15.3786 15.465C15.1881 15.6555 14.959 15.8027 14.7066 15.8969C14.3882 16.0152 13.9908 16.0152 13.1951 16.0152H8.41361C6.42047 16.0152 4.50895 15.2234 3.09958 13.8141C1.69021 12.4047 0.898438 10.4932 0.898438 8.50004Z" stroke="#81818D" style="stroke:#81818D;stroke:color(display-p3 0.5059 0.5059 0.5529);stroke-opacity:1;" stroke-width="1.66667"/>
<path d="M5.5957 7.56067H11.2321M8.41389 11.3183H11.2321" stroke="#81818D" style="stroke:#81818D;stroke:color(display-p3 0.5059 0.5059 0.5529);stroke-opacity:1;" stroke-width="1.66667" stroke-linecap="round" stroke-linejoin="round"/>
</svg>
