<svg width="18" height="18" viewBox="0 0 18 18" fill="none" xmlns="http://www.w3.org/2000/svg">
<path d="M1.78076 8.99998C1.78076 7.00683 2.57254 5.09532 3.98191 3.68595C5.39128 2.27658 7.30279 1.4848 9.29594 1.4848C11.2891 1.4848 13.2006 2.27658 14.61 3.68595C16.0193 5.09532 16.8111 7.00683 16.8111 8.99998V13.7815C16.8111 14.5781 16.8111 14.9745 16.6928 15.293C16.5986 15.5453 16.4514 15.7745 16.2609 15.965C16.0705 16.1554 15.8413 16.3027 15.589 16.3968C15.2705 16.5152 14.8731 16.5152 14.0775 16.5152H9.29594C7.30279 16.5152 5.39128 15.7234 3.98191 14.314C2.57254 12.9046 1.78076 10.9931 1.78076 8.99998Z" stroke="#070A1C" style="stroke:#070A1C;stroke:color(display-p3 0.0275 0.0392 0.1098);stroke-opacity:1;" stroke-width="1.66667"/>
<path d="M6.47754 8.06055H12.1139M9.29573 11.8181H12.1139" stroke="#070A1C" style="stroke:#070A1C;stroke:color(display-p3 0.0275 0.0392 0.1098);stroke-opacity:1;" stroke-width="1.66667" stroke-linecap="round" stroke-linejoin="round"/>
</svg>
