<svg width="19" height="20" viewBox="0 0 19 20" fill="none" xmlns="http://www.w3.org/2000/svg">
<path d="M0.962402 5.00002C0.962402 4.11597 1.31359 3.26812 1.93871 2.643C2.56383 2.01788 3.41168 1.66669 4.29574 1.66669H14.2957C15.1798 1.66669 16.0276 2.01788 16.6528 2.643C17.2779 3.26812 17.6291 4.11597 17.6291 5.00002V15C17.6291 15.8841 17.2779 16.7319 16.6528 17.357C16.0276 17.9822 15.1798 18.3334 14.2957 18.3334H4.29574C3.41168 18.3334 2.56383 17.9822 1.93871 17.357C1.31359 16.7319 0.962402 15.8841 0.962402 15V5.00002Z" stroke="#070A1C" style="stroke:#070A1C;stroke:color(display-p3 0.0275 0.0392 0.1098);stroke-opacity:1;" stroke-width="1.66667" stroke-linecap="round" stroke-linejoin="round"/>
<path d="M6.37923 9.16667C7.52982 9.16667 8.46256 8.23393 8.46256 7.08333C8.46256 5.93274 7.52982 5 6.37923 5C5.22864 5 4.2959 5.93274 4.2959 7.08333C4.2959 8.23393 5.22864 9.16667 6.37923 9.16667Z" stroke="#070A1C" style="stroke:#070A1C;stroke:color(display-p3 0.0275 0.0392 0.1098);stroke-opacity:1;" stroke-width="1.66667" stroke-linecap="round" stroke-linejoin="round"/>
<path d="M11.4009 10.5175L4.2959 18.3334H14.4067C15.2614 18.3334 16.081 17.9938 16.6854 17.3895C17.2897 16.7852 17.6292 15.9655 17.6292 15.1109V15C17.6292 14.6117 17.4834 14.4625 17.2209 14.175L13.8626 10.5125C13.706 10.3418 13.5157 10.2055 13.3035 10.1125C13.0914 10.0195 12.8623 9.97164 12.6306 9.97211C12.399 9.97258 12.17 10.0213 11.9583 10.1152C11.7466 10.2091 11.5567 10.3462 11.4009 10.5175Z" stroke="#070A1C" style="stroke:#070A1C;stroke:color(display-p3 0.0275 0.0392 0.1098);stroke-opacity:1;" stroke-width="1.66667" stroke-linecap="round" stroke-linejoin="round"/>
</svg>
