<svg width="16" height="16" viewBox="0 0 16 16" fill="none" xmlns="http://www.w3.org/2000/svg">
<path d="M15.4288 6.62505L9.36741 0.563611C9.08323 0.279525 8.69787 0.119934 8.29605 0.119934C7.89423 0.119934 7.50886 0.279525 7.22469 0.563611L1.16325 6.62505C1.02196 6.76547 0.909959 6.93255 0.833742 7.11659C0.757524 7.30063 0.718607 7.49797 0.719246 7.69717V14.9709C0.719246 15.212 0.815038 15.4433 0.985549 15.6138C1.15606 15.7843 1.38732 15.8801 1.62846 15.8801H14.9636C15.2048 15.8801 15.436 15.7843 15.6065 15.6138C15.7771 15.4433 15.8728 15.212 15.8728 14.9709V7.69717C15.8735 7.49797 15.8346 7.30063 15.7584 7.11659C15.6821 6.93255 15.5701 6.76547 15.4288 6.62505ZM14.0544 14.0617H2.53768V7.82219L8.29605 2.06382L14.0544 7.82219V14.0617Z" fill="#070A1C" style="fill:#070A1C;fill:color(display-p3 0.0275 0.0392 0.1098);fill-opacity:1;"/>
</svg>
