<svg width="146" height="18" viewBox="0 0 146 18" fill="none" xmlns="http://www.w3.org/2000/svg">
<g clip-path="url(#clip0_3512_4718)">
<path d="M27.8683 1.382H32.1678L34.187 11.7977L35.9625 4.23032C36.4674 2.0056 37.564 1.04492 39.2525 1.04492C40.9409 1.04492 42.0202 1.98874 42.5424 4.23032L44.3179 11.7977L46.3371 1.382H50.6366L47.8341 14.1236C47.4337 15.9438 46.1804 16.9719 44.4746 16.9719C42.7687 16.9719 41.5676 15.9775 41.1672 14.309L39.2351 6.08425L37.3029 14.309C36.9025 15.9775 35.5274 16.9719 33.9956 16.9719C32.4638 16.9719 31.0364 15.9607 30.636 14.1236L27.8335 1.382H27.8683Z" fill="#543C52" style="fill:#543C52;fill:color(display-p3 0.3294 0.2353 0.3216);fill-opacity:1;"/>
<path d="M51.5591 8.99997C51.5591 4.46626 55.0927 1.06177 59.8448 1.06177C64.5969 1.06177 68.1305 4.46626 68.1305 8.99997C68.1305 13.5337 64.5969 16.9382 59.8448 16.9382C55.0927 16.9382 51.5591 13.5337 51.5591 8.99997ZM63.7265 8.99997C63.7265 6.74154 62.0555 5.00559 59.8622 5.00559C57.6689 5.00559 55.9979 6.74154 55.9979 8.99997C55.9979 11.2584 57.6689 12.9944 59.8622 12.9944C62.0555 12.9944 63.7265 11.2584 63.7265 8.99997Z" fill="#543C52" style="fill:#543C52;fill:color(display-p3 0.3294 0.2353 0.3216);fill-opacity:1;"/>
<path d="M70.707 16.6011V1.38202H77.3043C81.0294 1.38202 83.8667 3.06741 83.8667 6.4382C83.8667 9.80898 82.7004 10.0955 80.8553 10.6517C81.6386 11.1404 82.1608 12.0337 82.8571 13.3989L84.4585 16.6011H79.7761L78.3139 13.736C77.7743 12.691 77.165 12.3202 75.7725 12.3202H74.9891V16.6011H70.707ZM75.0066 5.20786V8.61236C74.9891 8.61236 77.2869 8.61236 77.2869 8.61236C78.5402 8.61236 79.4279 7.9382 79.4279 6.85955C79.4279 5.7809 78.5402 5.20786 77.3391 5.20786H75.0066Z" fill="#543C52" style="fill:#543C52;fill:color(display-p3 0.3294 0.2353 0.3216);fill-opacity:1;"/>
<path d="M91.5603 12.7584H98.5056V16.5843H90.9858C88.34 16.5843 87.2607 15.236 87.2607 13.0955V1.38202H91.5603V12.7584Z" fill="#543C52" style="fill:#543C52;fill:color(display-p3 0.3294 0.2353 0.3216);fill-opacity:1;"/>
<path d="M106.826 16.6011H100.612V1.38202H106.826C111.979 1.38202 115.39 4.43258 115.39 9.05056C115.39 13.6685 111.857 16.6011 106.826 16.6011ZM106.826 5.20786H104.911V12.8764H106.826C109.333 12.8764 110.969 11.3427 110.969 9.05056C110.969 6.75842 109.333 5.22472 106.826 5.22472V5.20786Z" fill="#543C52" style="fill:#543C52;fill:color(display-p3 0.3294 0.2353 0.3216);fill-opacity:1;"/>
<path d="M129.003 1.38202V16.6011H124.703V1.38202H129.003Z" fill="#543C52" style="fill:#543C52;fill:color(display-p3 0.3294 0.2353 0.3216);fill-opacity:1;"/>
<path d="M144.425 5.20786H139.986V16.5843H135.687V5.20786H131.248V1.38202H144.443V5.20786H144.425Z" fill="#543C52" style="fill:#543C52;fill:color(display-p3 0.3294 0.2353 0.3216);fill-opacity:1;"/>
<path d="M1.16602 4.66852H7.98955V8.37638H3.1156C2.03636 8.37638 1.16602 7.53369 1.16602 6.48874V4.66852Z" fill="#543C52" style="fill:#543C52;fill:color(display-p3 0.3294 0.2353 0.3216);fill-opacity:1;"/>
<path d="M6.04017 15.809H1.16622L1.16622 12.1011H7.98975L7.98975 13.9213C7.98975 14.9663 7.1194 15.809 6.04017 15.809Z" fill="#543C52" style="fill:#543C52;fill:color(display-p3 0.3294 0.2353 0.3216);fill-opacity:1;"/>
<path d="M8.09419 8.17413C8.05937 8.17413 8.02456 8.17413 7.98975 8.17413V11.8989C8.02456 11.8989 8.05937 11.8989 8.09419 11.8989C11.21 11.8989 13.734 14.3595 13.734 17.3595C13.734 20.3595 13.734 17.4269 13.734 17.4606H17.581C17.581 17.4269 17.581 17.3932 17.581 17.3595C17.581 12.3033 13.3337 8.17413 8.09419 8.17413Z" fill="#543C52" style="fill:#543C52;fill:color(display-p3 0.3294 0.2353 0.3216);fill-opacity:1;"/>
<path d="M10.1134 0.539307C11.2971 0.539307 12.237 1.46627 12.237 2.59549C12.237 3.74155 11.2797 4.65167 10.1134 4.65167H7.98975V2.59549C7.98975 1.44942 8.94713 0.539307 10.1134 0.539307Z" fill="#543C52" style="fill:#543C52;fill:color(display-p3 0.3294 0.2353 0.3216);fill-opacity:1;"/>
<path d="M13.8385 6.15168H13.9255C14.9874 6.15168 16.2581 6.01684 17.5462 5.79774C18.8169 5.57864 20.0702 5.27527 21.0624 4.93819C21.0972 4.93819 21.1146 4.92134 21.1494 4.90448C21.0276 4.04493 20.5924 3.2528 19.9135 2.66291C19.2347 2.08988 18.3643 1.76965 17.4591 1.76965C15.6314 1.76965 14.117 3.05055 13.8037 4.71909C13.7689 4.92134 13.7515 5.14044 13.7515 5.35954C13.7515 5.57864 13.7515 5.46066 13.7515 5.49437C13.7515 5.71347 13.7863 5.93257 13.8385 6.13482V6.15168Z" fill="#543C52" style="fill:#543C52;fill:color(display-p3 0.3294 0.2353 0.3216);fill-opacity:1;"/>
<path d="M23.8648 4.28087C23.7778 3.80896 22.6638 3.55615 21.0275 3.55615C21.132 3.7584 21.219 3.96065 21.306 4.17975C21.306 4.21346 21.3234 4.24716 21.3408 4.28087C22.1067 4.28087 22.6115 4.36514 22.8901 4.44941C22.6464 4.61795 22.2112 4.85391 21.4801 5.12357L21.2364 5.20784L21.1494 5.24155C20.1746 5.57862 18.9909 5.86514 17.755 6.08424C17.7028 6.08424 17.6332 6.1011 17.5809 6.11795C17.5113 6.11795 17.4417 6.1348 17.3721 6.15166C16.171 6.35391 14.9873 6.45503 13.9777 6.47188H13.9081H13.5773C12.8114 6.47188 12.3066 6.38761 12.0281 6.30334C12.2718 6.1348 12.707 5.89885 13.4381 5.62919C13.4381 5.59548 13.4381 5.56177 13.4381 5.52806C13.4381 5.4775 13.4381 5.42694 13.4381 5.37638C13.4381 5.20784 13.4381 5.02244 13.4729 4.8539C11.9237 5.39323 10.9663 5.98312 11.0533 6.47188C11.1404 6.9775 12.4285 7.23031 14.2562 7.17975C14.3258 7.17975 14.3781 7.17975 14.4477 7.17975C15.318 7.14604 16.2928 7.04492 17.285 6.89323C17.3546 6.89323 17.4243 6.87638 17.4939 6.85952C17.5635 6.85952 17.6332 6.84267 17.7028 6.82582C17.7724 6.82582 17.842 6.80896 17.9117 6.79211C17.9813 6.79211 18.0509 6.7584 18.1206 6.7584C19.1127 6.57301 20.0701 6.33705 20.8883 6.08424C20.9405 6.06739 21.0101 6.05053 21.0623 6.03368C22.803 5.4775 23.9171 4.8202 23.83 4.29773L23.8648 4.28087Z" fill="#543C52" style="fill:#543C52;fill:color(display-p3 0.3294 0.2353 0.3216);fill-opacity:1;"/>
<path d="M17.7725 7.11237C16.6236 7.31462 15.4748 7.43259 14.4478 7.4663C15.144 8.39327 16.2581 8.94945 17.4418 8.94945C19.1302 8.94945 20.5576 7.85394 21.0102 6.35394C20.0354 6.65731 18.9213 6.91012 17.7725 7.11237Z" fill="#543C52" style="fill:#543C52;fill:color(display-p3 0.3294 0.2353 0.3216);fill-opacity:1;"/>
</g>
<defs>
<clipPath id="clip0_3512_4718">
<rect width="145" height="18" fill="white" style="fill:white;fill-opacity:1;" transform="translate(0.295898)"/>
</clipPath>
</defs>
</svg>
