<svg width="17" height="16" viewBox="0 0 17 16" fill="none" xmlns="http://www.w3.org/2000/svg">
<path d="M1.42041 0.227539H6.42041C6.62856 0.227539 6.82911 0.299966 6.98877 0.430664L7.05518 0.490234C7.22349 0.658548 7.31787 0.886968 7.31787 1.125C7.31787 1.33315 7.24544 1.5337 7.11475 1.69336L7.05518 1.75977C6.88686 1.92808 6.65844 2.02246 6.42041 2.02246H2.31787V13.9775H6.42041C6.62856 13.9775 6.82911 14.05 6.98877 14.1807L7.05518 14.2402C7.22349 14.4085 7.31787 14.637 7.31787 14.875C7.31787 15.0831 7.24544 15.2837 7.11475 15.4434L7.05518 15.5098C6.88686 15.6781 6.65844 15.7725 6.42041 15.7725H1.42041C1.21227 15.7725 1.01171 15.7 0.852051 15.5693L0.785645 15.5098C0.617331 15.3415 0.522949 15.113 0.522949 14.875V1.125C0.522949 0.916855 0.595376 0.716297 0.726074 0.556641L0.785645 0.490234C0.953958 0.321921 1.18238 0.227539 1.42041 0.227539ZM12.0444 3.97656C12.2532 3.97656 12.4547 4.04938 12.6147 4.18066L12.6802 4.24023L15.8052 7.36523C15.8679 7.42783 15.9207 7.49929 15.9624 7.57715L16.0005 7.65625C16.0457 7.76537 16.0689 7.88285 16.0688 8.00098L16.0649 8.08887C16.0591 8.14752 16.047 8.20533 16.0298 8.26172L16.0005 8.34473C15.9664 8.42664 15.92 8.50309 15.8638 8.57129L15.8052 8.63672H15.8042L12.6792 11.7617C12.5106 11.9302 12.2818 12.0254 12.0435 12.0254C11.835 12.0253 11.634 11.9523 11.4741 11.8213L11.4077 11.7617C11.2392 11.5932 11.1451 11.3643 11.145 11.126C11.145 10.9173 11.217 10.7157 11.3481 10.5557L11.4077 10.4902L12.9331 8.96582L13.0015 8.89746H6.42041C6.21227 8.89746 6.01171 8.82503 5.85205 8.69434L5.78564 8.63477C5.61733 8.46645 5.52295 8.23803 5.52295 8C5.52295 7.79185 5.59538 7.5913 5.72607 7.43164L5.78564 7.36523C5.95396 7.19692 6.18238 7.10254 6.42041 7.10254H13.0015L12.9331 7.03418L11.4087 5.51172C11.2401 5.34315 11.1451 5.11437 11.145 4.87598C11.145 4.66725 11.2179 4.46569 11.3491 4.30566L11.4087 4.24023C11.5773 4.07166 11.806 3.97661 12.0444 3.97656Z" fill="#543C52" stroke="#543C52" style="fill:#543C52;fill:color(display-p3 0.3294 0.2353 0.3216);fill-opacity:1;stroke:#543C52;stroke:color(display-p3 0.3294 0.2353 0.3216);stroke-opacity:1;" stroke-width="0.08"/>
</svg>
