<svg width="21" height="14" viewBox="0 0 21 14" fill="none" xmlns="http://www.w3.org/2000/svg">
<path d="M2.8754 4.49798C2.87531 3.77282 3.05548 3.05901 3.39969 2.42075C3.7439 1.78249 4.24137 1.2398 4.84734 0.841493C5.45332 0.443184 6.1488 0.201748 6.87123 0.1389C7.59366 0.0760514 8.32038 0.193762 8.98603 0.481444C9.65169 0.769127 10.2354 1.21776 10.6847 1.78699C11.1339 2.35622 11.4346 3.02819 11.5598 3.74247C11.6849 4.45675 11.6305 5.19094 11.4015 5.87899C11.1725 6.56705 10.7761 7.18739 10.2479 7.68423C11.2438 8.16772 12.1084 8.88414 12.7686 9.7728C13.4288 10.6615 13.8651 11.6962 14.0404 12.7892C14.0597 12.9109 14.0548 13.0351 14.0261 13.1549C13.9974 13.2746 13.9453 13.3876 13.873 13.4872C13.8006 13.5869 13.7093 13.6713 13.6043 13.7356C13.4993 13.8 13.3827 13.8431 13.261 13.8624C13.1394 13.8816 13.0151 13.8768 12.8954 13.8481C12.7756 13.8193 12.6627 13.7673 12.5631 13.6949C12.4634 13.6225 12.379 13.5313 12.3146 13.4263C12.2502 13.3213 12.2072 13.2046 12.1879 13.083C12.0004 11.9084 11.4003 10.8391 10.4954 10.0671C9.59041 9.29513 8.43989 8.87107 7.2504 8.87107C6.06092 8.87107 4.9104 9.29513 4.00544 10.0671C3.10049 10.8391 2.50039 11.9084 2.3129 13.083C2.29353 13.2046 2.25039 13.3212 2.18595 13.4262C2.1215 13.5312 2.03702 13.6224 1.93731 13.6947C1.8376 13.767 1.72463 13.819 1.60484 13.8477C1.48505 13.8763 1.36079 13.8811 1.23915 13.8617C1.11751 13.8424 1.00088 13.7992 0.895918 13.7348C0.790953 13.6703 0.699709 13.5858 0.627395 13.4861C0.555082 13.3864 0.503115 13.2735 0.474462 13.1537C0.445809 13.0339 0.441031 12.9096 0.460401 12.788C0.635117 11.695 1.07114 10.6604 1.73142 9.77201C2.3917 8.88367 3.2567 8.16787 4.2529 7.68548C3.8179 7.27632 3.47128 6.78243 3.23437 6.23424C2.99747 5.68605 2.8753 5.09517 2.8754 4.49798ZM14.1254 2.62298C14.8517 2.62348 15.5622 2.8348 16.1707 3.23129C16.7792 3.62777 17.2595 4.19236 17.5533 4.85654C17.8471 5.52071 17.9419 6.25589 17.826 6.97285C17.7101 7.68981 17.3885 8.35771 16.9004 8.89548C17.6617 9.2726 18.3381 9.80098 18.8883 10.4483C19.4385 11.0957 19.8509 11.8484 20.1004 12.6605C20.15 12.8181 20.1569 12.986 20.1206 13.1471C20.0843 13.3083 20.006 13.4569 19.8936 13.578C19.7813 13.6992 19.6389 13.7884 19.4809 13.8367C19.323 13.8849 19.155 13.8906 18.9942 13.853C18.8333 13.8158 18.6852 13.7368 18.5647 13.624C18.4442 13.5111 18.3556 13.3685 18.3079 13.2105C18.0835 12.4859 17.6752 11.8319 17.1227 11.3122C16.5701 10.7926 15.8923 10.425 15.1554 10.2455C14.9507 10.1961 14.7686 10.0792 14.6384 9.91363C14.5083 9.74809 14.4376 9.54356 14.4379 9.33298V8.89298C14.4378 8.71844 14.4864 8.54733 14.5783 8.39892C14.6701 8.25052 14.8016 8.1307 14.9579 8.05298C15.3369 7.86517 15.6412 7.55476 15.8215 7.17216C16.0017 6.78956 16.0473 6.35726 15.9509 5.94546C15.8545 5.53366 15.6217 5.16656 15.2902 4.90379C14.9588 4.64101 14.5483 4.498 14.1254 4.49798C13.8768 4.49798 13.6383 4.3992 13.4625 4.22339C13.2867 4.04757 13.1879 3.80912 13.1879 3.56048C13.1879 3.31184 13.2867 3.07338 13.4625 2.89756C13.6383 2.72175 13.8768 2.62298 14.1254 2.62298ZM7.2504 1.99798C6.91748 1.99045 6.5864 2.04951 6.27662 2.17169C5.96684 2.29387 5.68458 2.47671 5.44643 2.70948C5.20829 2.94225 5.01904 3.22025 4.88981 3.52716C4.76058 3.83407 4.69396 4.1637 4.69388 4.49671C4.6938 4.82972 4.76025 5.15939 4.88932 5.46637C5.0184 5.77334 5.20751 6.05143 5.44554 6.28432C5.68357 6.5172 5.96573 6.70019 6.27546 6.82252C6.58518 6.94486 6.91622 7.00409 7.24915 6.99673C7.90235 6.98228 8.52394 6.7127 8.98086 6.24568C9.43778 5.77866 9.69372 5.15132 9.69388 4.49796C9.69405 3.8446 9.43842 3.21714 8.98174 2.74989C8.52505 2.28264 7.9036 2.01275 7.2504 1.99798Z" fill="#070A1C" style="fill:#070A1C;fill:color(display-p3 0.0275 0.0392 0.1098);fill-opacity:1;"/>
</svg>
