<svg width="18" height="18" viewBox="0 0 18 18" fill="none" xmlns="http://www.w3.org/2000/svg">
<circle cx="2.34996" cy="2.34996" r="2.34996" transform="matrix(-1 0 0 1 11.6025 6.65021)" stroke="#070A1C" style="stroke:#070A1C;stroke:color(display-p3 0.0275 0.0392 0.1098);stroke-opacity:1;" stroke-width="1.8"/>
<path d="M9.25256 1.16699V0.266992H9.25254L9.25256 1.16699ZM12.778 3.46777L12.328 4.2472L12.328 4.24721L12.778 3.46777ZM14.736 8.2168L13.836 8.21677V8.2168H14.736ZM12.778 14.5322L12.328 13.7528L12.328 13.7528L12.778 14.5322ZM9.25256 16.833L9.25254 17.733H9.25256V16.833ZM5.72815 14.5322L6.17825 13.7529L6.17815 13.7528L5.72815 14.5322ZM2.98596 9H3.88596V8.99993L2.98596 9ZM5.72815 3.46777L6.17815 4.2472L6.17827 4.24713L5.72815 3.46777ZM6.80901 2.08082L5.94352 1.83396L6.80901 2.08082ZM7.43964 1.37811L7.232 0.502387L7.43964 1.37811ZM4.13589 14.2564L3.9745 13.371L4.13589 14.2564ZM7.43961 16.6219L7.23196 17.4976L7.43961 16.6219ZM6.809 15.9192L5.94352 16.1661L6.809 15.9192ZM11.6954 15.9191L10.8301 15.6716L11.6954 15.9191ZM15.2774 14.003L14.5854 13.4275L15.2774 14.003ZM14.3693 14.2565L14.5307 13.3711L14.3693 14.2565ZM16.0643 5.13019L15.2825 5.57604L16.0643 5.13019ZM15.6544 6.35561L15.1062 5.64184L15.6544 6.35561ZM2.2367 10.718L1.62386 10.0589L2.2367 10.718ZM4.13586 3.74286L3.97392 4.62817L4.13586 3.74286ZM16.696 11.4424L15.8409 11.1619L16.696 11.4424ZM11.6954 2.08089L12.5607 1.83334L11.6954 2.08089ZM9.25256 1.16699V2.06699C9.80552 2.06699 10.3425 2.13191 10.8568 2.25384L11.0644 1.37812L11.272 0.502397C10.6232 0.348562 9.94691 0.266992 9.25256 0.266992V1.16699ZM11.6954 2.08089L10.8301 2.32843C11.0532 3.10823 11.5683 3.80863 12.328 4.2472L12.778 3.46777L13.228 2.68835C12.8894 2.49288 12.6608 2.18316 12.5607 1.83334L11.6954 2.08089ZM12.778 3.46777L12.328 4.24721C13.0218 4.64775 13.8025 4.76137 14.5313 4.6281L14.3694 3.74278L14.2075 2.85746C13.881 2.91717 13.5365 2.86645 13.2279 2.68833L12.778 3.46777ZM15.2775 3.99598L14.5858 4.57176C14.8464 4.88484 15.0799 5.22076 15.2825 5.57604L16.0643 5.13019L16.8461 4.68434C16.5906 4.23633 16.2967 3.81357 15.9692 3.42019L15.2775 3.99598ZM15.6544 6.35561L15.1062 5.64184C14.3359 6.23347 13.836 7.16611 13.836 8.21677L14.736 8.2168L15.636 8.21682C15.636 7.74986 15.8561 7.33546 16.2026 7.06937L15.6544 6.35561ZM14.736 8.2168H13.836C13.836 9.50001 14.5798 10.6057 15.6549 11.1327L16.0511 10.3246L16.4472 9.5165C15.9645 9.27984 15.636 8.78641 15.636 8.2168H14.736ZM16.696 11.4424L15.8409 11.1619C15.5666 11.9978 15.137 12.7642 14.5854 13.4275L15.2774 14.003L15.9694 14.5784C16.6629 13.7444 17.2048 12.7787 17.5512 11.723L16.696 11.4424ZM14.3693 14.2565L14.5307 13.3711C13.8018 13.2382 13.0213 13.3526 12.328 13.7528L12.778 14.5322L13.2279 15.3117C13.5367 15.1334 13.8816 15.0824 14.208 15.1419L14.3693 14.2565ZM12.778 14.5322L12.328 13.7528C11.5683 14.1914 11.0532 14.8918 10.8301 15.6716L11.6954 15.9191L12.5607 16.1667C12.6608 15.8168 12.8894 15.5071 13.228 15.3116L12.778 14.5322ZM11.0644 16.6219L10.8568 15.7462C10.3425 15.8681 9.80557 15.933 9.25256 15.933V16.833V17.733C9.94695 17.733 10.6232 17.6514 11.2721 17.4976L11.0644 16.6219ZM9.25256 16.833L9.25258 15.933C8.699 15.933 8.16171 15.8682 7.64726 15.7462L7.43961 16.6219L7.23196 17.4976C7.88129 17.6516 8.55791 17.733 9.25254 17.733L9.25256 16.833ZM6.809 15.9192L7.67448 15.6723C7.45218 14.893 6.93843 14.1919 6.17825 13.7529L5.72815 14.5322L5.27804 15.3116C5.61573 15.5066 5.84363 15.8159 5.94352 16.1661L6.809 15.9192ZM5.72815 14.5322L6.17815 13.7528C5.48467 13.3524 4.70367 13.2381 3.9745 13.371L4.13589 14.2564L4.29729 15.1418C4.62395 15.0823 4.96923 15.1333 5.27815 15.3116L5.72815 14.5322ZM3.22774 14.0028L3.9199 13.4276C3.42158 12.828 3.02319 12.1437 2.74878 11.3996L1.90437 11.711L1.05996 12.0224C1.40618 12.9612 1.90844 13.8235 2.53558 14.5781L3.22774 14.0028ZM2.2367 10.718L2.84954 11.3771C3.48532 10.7859 3.88596 9.93991 3.88596 9H2.98596H2.08596C2.08596 9.41809 1.90959 9.79319 1.62386 10.0589L2.2367 10.718ZM2.98596 9L3.88596 8.99993C3.88589 8.0604 3.48577 7.21388 2.84995 6.62233L2.2369 7.28125L1.62386 7.94017C1.90944 8.20587 2.08593 8.5815 2.08596 9.00007L2.98596 9ZM1.90453 6.2878L2.74891 6.59928C3.0234 5.85518 3.42169 5.17088 3.91985 4.57148L3.22769 3.99622L2.53553 3.42097C1.90843 4.17553 1.40637 5.03778 1.06015 5.97631L1.90453 6.2878ZM4.13586 3.74286L3.97392 4.62817C4.70295 4.76152 5.48414 4.64788 6.17815 4.2472L5.72815 3.46777L5.27815 2.68835C4.96953 2.86653 4.62459 2.91732 4.2978 2.85755L4.13586 3.74286ZM5.72815 3.46777L6.17827 4.24713C6.9384 3.80811 7.45218 3.1071 7.67449 2.32769L6.80901 2.08082L5.94352 1.83396C5.84365 2.18412 5.61575 2.49337 5.27803 2.68842L5.72815 3.46777ZM7.43964 1.37811L7.64728 2.25383C8.16174 2.13185 8.69905 2.067 9.25258 2.06699L9.25256 1.16699L9.25254 0.266992C8.55795 0.267007 7.88131 0.348431 7.232 0.502387L7.43964 1.37811ZM6.80901 2.08082L7.67449 2.32769C7.68321 2.2971 7.69365 2.271 7.704 2.25046C7.71443 2.22979 7.72275 2.21874 7.72584 2.21506C7.72872 2.21161 7.72424 2.21789 7.70985 2.22733C7.69444 2.23746 7.67278 2.24778 7.64728 2.25383L7.43964 1.37811L7.232 0.502387C6.45184 0.687368 6.07929 1.35796 5.94352 1.83396L6.80901 2.08082ZM2.2369 7.28125L2.84995 6.62233C2.82342 6.59765 2.80166 6.57238 2.78545 6.54933C2.76911 6.52608 2.76174 6.50988 2.7592 6.50315C2.75679 6.49678 2.76063 6.50415 2.76136 6.5239C2.76215 6.54544 2.75878 6.57254 2.74891 6.59928L1.90453 6.2878L1.06015 5.97631C0.745979 6.82799 1.22674 7.5707 1.62386 7.94017L2.2369 7.28125ZM4.13589 14.2564L3.9745 13.371C3.94325 13.3767 3.91526 13.3789 3.8923 13.3787C3.8692 13.3785 3.8556 13.3759 3.85089 13.3748C3.84649 13.3737 3.854 13.3749 3.86873 13.3835C3.8845 13.3928 3.90325 13.4075 3.9199 13.4276L3.22774 14.0028L2.53558 14.5781C3.04679 15.1932 3.81091 15.2305 4.29729 15.1418L4.13589 14.2564ZM7.43961 16.6219L7.64726 15.7462C7.67276 15.7522 7.69442 15.7625 7.70983 15.7727C7.72422 15.7821 7.7287 15.7884 7.72582 15.785C7.72273 15.7813 7.71442 15.7702 7.70399 15.7496C7.69364 15.729 7.68321 15.7029 7.67448 15.6723L6.809 15.9192L5.94352 16.1661C6.07929 16.6421 6.45184 17.3126 7.23196 17.4976L7.43961 16.6219ZM11.6954 15.9191L10.8301 15.6716C10.8213 15.7023 10.8108 15.7285 10.8004 15.7491C10.7899 15.7699 10.7816 15.781 10.7784 15.7848C10.7755 15.7883 10.7799 15.782 10.7943 15.7726C10.8096 15.7625 10.8313 15.7522 10.8568 15.7462L11.0644 16.6219L11.2721 17.4976C12.0522 17.3126 12.4247 16.6421 12.5607 16.1667L11.6954 15.9191ZM15.2774 14.003L14.5854 13.4275C14.602 13.4075 14.6207 13.3928 14.6365 13.3836C14.6512 13.375 14.6587 13.3738 14.6542 13.3748C14.6495 13.376 14.6359 13.3785 14.6128 13.3787C14.5899 13.3789 14.5619 13.3768 14.5307 13.3711L14.3693 14.2565L14.208 15.1419C14.6944 15.2306 15.4582 15.1931 15.9694 14.5784L15.2774 14.003ZM16.0643 5.13019L15.2825 5.57604C15.2657 5.54665 15.2567 5.5112 15.2559 5.48088C15.2552 5.45472 15.2609 5.44805 15.2549 5.46345C15.2488 5.47916 15.2344 5.50749 15.2064 5.5431C15.1788 5.57832 15.1441 5.61271 15.1062 5.64184L15.6544 6.35561L16.2026 7.06937C16.5027 6.83885 16.7786 6.51102 16.9322 6.11671C17.0909 5.70915 17.1305 5.18304 16.8461 4.68434L16.0643 5.13019ZM1.90437 11.711L2.74878 11.3996C2.75864 11.4263 2.76201 11.4534 2.76122 11.475C2.76049 11.4948 2.75664 11.5022 2.75903 11.4959C2.76155 11.4892 2.76889 11.4731 2.78519 11.4499C2.80136 11.4269 2.82306 11.4017 2.84954 11.3771L2.2367 10.718L1.62386 10.0589C1.22649 10.4283 0.745937 11.1709 1.05996 12.0224L1.90437 11.711ZM14.3694 3.74278L14.5313 4.6281C14.5624 4.6224 14.5903 4.62021 14.6132 4.6204C14.6363 4.62059 14.6498 4.62313 14.6545 4.62428C14.6589 4.62535 14.6515 4.62414 14.6368 4.61556C14.6211 4.60637 14.6024 4.59172 14.5858 4.57176L15.2775 3.99598L15.9692 3.42019C15.4579 2.80588 14.6943 2.76844 14.2075 2.85746L14.3694 3.74278ZM3.22769 3.99622L3.91985 4.57148C3.90319 4.59153 3.88443 4.60627 3.86862 4.61552C3.85387 4.62417 3.84632 4.62539 3.85067 4.62433C3.85534 4.6232 3.86888 4.62065 3.89193 4.62046C3.91483 4.62027 3.94274 4.62247 3.97392 4.62817L4.13586 3.74286L4.2978 2.85755C3.81113 2.76853 3.04684 2.80575 2.53553 3.42097L3.22769 3.99622ZM16.0511 10.3246L15.6549 11.1327C15.6981 11.1539 15.739 11.1808 15.7731 11.2098C15.8076 11.2392 15.8274 11.2641 15.8364 11.2782C15.8453 11.292 15.8384 11.2865 15.8338 11.2606C15.8285 11.2306 15.8303 11.194 15.8409 11.1619L16.696 11.4424L17.5512 11.723C17.7299 11.178 17.5864 10.671 17.3498 10.3037C17.1211 9.94838 16.7861 9.6826 16.4472 9.5165L16.0511 10.3246ZM11.0644 1.37812L10.8568 2.25384C10.8313 2.2478 10.8096 2.23748 10.7942 2.22738C10.7799 2.21796 10.7755 2.21172 10.7784 2.21524C10.7816 2.21899 10.7899 2.23012 10.8004 2.25089C10.8108 2.27152 10.8213 2.29773 10.8301 2.32843L11.6954 2.08089L12.5607 1.83334C12.4247 1.35794 12.0522 0.68737 11.272 0.502397L11.0644 1.37812Z" fill="#070A1C" style="fill:#070A1C;fill:color(display-p3 0.0275 0.0392 0.1098);fill-opacity:1;"/>
</svg>
