<svg width="21" height="20" viewBox="0 0 21 20" fill="none" xmlns="http://www.w3.org/2000/svg">
<path d="M10.2959 1.33008C12.5945 1.33264 14.7985 2.2467 16.4238 3.87207C18.0492 5.49744 18.9633 7.70138 18.9658 10L18.96 10.3213C18.9045 11.8168 18.4626 13.2726 17.6777 14.5469L17.5049 14.8164C16.6118 16.153 15.3658 17.2138 13.9082 17.8818L13.6133 18.0098C12.1283 18.6248 10.5037 18.8148 8.9209 18.5605L8.60449 18.5029C6.92272 18.1684 5.37753 17.3434 4.16504 16.1309C3.02828 14.9941 2.23212 13.5649 1.86133 12.0049L1.79297 11.6914C1.47936 10.1148 1.61069 8.48441 2.16895 6.98145L2.28613 6.68262C2.90135 5.19736 3.91648 3.91415 5.21582 2.97461L5.47949 2.79102C6.81599 1.89808 8.37255 1.39533 9.97461 1.33594L10.2959 1.33008ZM12.9082 3.69336C11.6608 3.17667 10.2881 3.04128 8.96387 3.30469C7.63973 3.56813 6.42341 4.21819 5.46875 5.17285C4.51409 6.12751 3.86402 7.34383 3.60059 8.66797C3.35365 9.90938 3.45691 11.1935 3.89648 12.377L3.98926 12.6123C4.47371 13.7819 5.27269 14.7924 6.2959 15.5322L6.50293 15.6758C7.55535 16.379 8.7814 16.7755 10.043 16.8223L10.2959 16.8262C12.1058 16.8242 13.8413 16.105 15.1211 14.8252C16.4009 13.5454 17.1201 11.8099 17.1221 10L17.1182 9.74707C17.0745 8.56953 16.7264 7.42323 16.1084 6.41992L15.9717 6.20703C15.2684 5.15462 14.2874 4.31985 13.1396 3.79395L12.9082 3.69336ZM13.6494 11.0078C13.7404 11.0194 13.8288 11.0445 13.9121 11.082L13.9941 11.124C14.1001 11.1852 14.1926 11.2669 14.2666 11.3643C14.3221 11.4373 14.3669 11.5178 14.3984 11.6035L14.4258 11.6914C14.4488 11.7805 14.4583 11.8723 14.4541 11.9639L14.4453 12.0547C14.4321 12.1455 14.4054 12.2338 14.3662 12.3164L14.3232 12.3975H14.3223C13.4423 13.9221 11.9731 14.7959 10.2959 14.7959C8.72335 14.7959 7.33574 14.0289 6.44141 12.6758L6.26953 12.3975C6.1677 12.2129 6.13205 11.9999 6.16797 11.7939L6.18848 11.7061C6.24504 11.5023 6.36955 11.3251 6.54004 11.2031L6.61523 11.1543C6.79837 11.0485 7.01158 11.0096 7.21875 11.042L7.30664 11.0596C7.54001 11.1198 7.7406 11.2693 7.86523 11.4756V11.4766C8.18263 12.0256 8.92337 12.9521 10.2959 12.9521C11.4968 12.9521 12.2138 12.2421 12.5869 11.6973L12.7266 11.4766V11.4756C12.771 11.3952 12.8277 11.3223 12.8936 11.2588L12.9619 11.1982C13.0339 11.1414 13.1141 11.0956 13.1992 11.0625L13.2861 11.0342C13.3745 11.0097 13.4663 10.9976 13.5576 11L13.6494 11.0078ZM7.63281 7.16504C7.87422 7.21306 8.09646 7.33181 8.27051 7.50586C8.40089 7.63628 8.49979 7.79364 8.56152 7.96582L8.61133 8.14258C8.64733 8.32357 8.64203 8.50993 8.59766 8.6875L8.54004 8.8623C8.44584 9.08958 8.28659 9.2842 8.08203 9.4209C7.87746 9.55759 7.63665 9.62982 7.39062 9.62988C7.10185 9.62988 6.823 9.53004 6.60156 9.34863L6.51074 9.26562C6.27735 9.03224 6.14551 8.7158 6.14551 8.38574C6.14551 8.20132 6.18658 8.01991 6.26465 7.85449L6.35547 7.69434C6.45804 7.54083 6.59297 7.41256 6.75 7.31836L6.91406 7.23633C7.0847 7.16565 7.2682 7.13362 7.45117 7.14258L7.63281 7.16504ZM13.2012 7.1416C13.4899 7.1416 13.7688 7.24146 13.9902 7.42285L14.0811 7.50586C14.3144 7.73924 14.4463 8.05569 14.4463 8.38574C14.4463 8.57015 14.4052 8.75158 14.3271 8.91699L14.2363 9.07715C14.0996 9.28177 13.9051 9.44096 13.6777 9.53516C13.5071 9.60584 13.3236 9.63787 13.1406 9.62891L12.959 9.60645C12.778 9.57045 12.608 9.49464 12.4609 9.38574L12.3213 9.26562C12.1909 9.13519 12.092 8.97785 12.0303 8.80566L11.9805 8.62891C11.9445 8.44789 11.9498 8.26158 11.9941 8.08398L12.0518 7.90918C12.1224 7.73876 12.2297 7.58681 12.3652 7.46387L12.5098 7.35059C12.7143 7.2139 12.9551 7.14167 13.2012 7.1416Z" fill="#543C52" stroke="#543C52" style="fill:#543C52;fill:color(display-p3 0.3294 0.2353 0.3216);fill-opacity:1;stroke:#543C52;stroke:color(display-p3 0.3294 0.2353 0.3216);stroke-opacity:1;" stroke-width="0.09375"/>
</svg>
