<svg width="19" height="20" viewBox="0 0 19 20" fill="none" xmlns="http://www.w3.org/2000/svg">
<path d="M7.74965 8.23329C7.50403 8.46217 7.30702 8.73817 7.17038 9.04483C7.03374 9.3515 6.96027 9.68254 6.95434 10.0182C6.94842 10.3539 7.01017 10.6873 7.13591 10.9986C7.26164 11.3099 7.44879 11.5927 7.68619 11.8301C7.92358 12.0675 8.20636 12.2546 8.51766 12.3804C8.82895 12.5061 9.16238 12.5679 9.49806 12.5619C9.83373 12.556 10.1648 12.4825 10.4714 12.3459C10.7781 12.2093 11.0541 12.0122 11.283 11.7666M8.45798 4.23329C8.80907 4.18955 9.16251 4.16729 9.51632 4.16663C15.3496 4.16663 17.8496 9.99996 17.8496 9.99996C17.4771 10.7976 17.0098 11.5474 16.458 12.2333M5.02465 5.50829C3.36736 6.63715 2.04121 8.18768 1.18298 9.99996C1.18298 9.99996 3.68298 15.8333 9.51632 15.8333C11.1129 15.8376 12.6753 15.3709 14.008 14.4916M1.18298 1.66663L17.8496 18.3333" stroke="#81818D" style="stroke:#81818D;stroke:color(display-p3 0.5059 0.5059 0.5529);stroke-opacity:1;" stroke-width="2" stroke-linecap="round" stroke-linejoin="round"/>
</svg>
