<svg width="21" height="20" viewBox="0 0 21 20" fill="none" xmlns="http://www.w3.org/2000/svg">
<path d="M12.3799 10C12.3799 10.4326 12.2516 10.8556 12.0112 11.2153C11.7709 11.575 11.4292 11.8554 11.0295 12.021C10.6298 12.1866 10.19 12.2299 9.76562 12.1455C9.34129 12.0611 8.95152 11.8527 8.64559 11.5468C8.33966 11.2409 8.13132 10.8511 8.04692 10.4268C7.96251 10.0024 8.00583 9.56259 8.1714 9.16288C8.33696 8.76317 8.61734 8.42153 8.97707 8.18116C9.33681 7.9408 9.75974 7.8125 10.1924 7.8125C10.7725 7.8125 11.3289 8.04297 11.7392 8.45321C12.1494 8.86344 12.3799 9.41984 12.3799 10ZM10.1924 5.9375C10.625 5.9375 11.048 5.80921 11.4077 5.56884C11.7674 5.32848 12.0478 4.98683 12.2134 4.58712C12.3789 4.18741 12.4223 3.74757 12.3379 3.32324C12.2534 2.89891 12.0451 2.50913 11.7392 2.2032C11.4333 1.89728 11.0435 1.68894 10.6191 1.60453C10.1948 1.52013 9.75498 1.56345 9.35526 1.72901C8.95555 1.89458 8.61391 2.17496 8.37354 2.53469C8.13318 2.89442 8.00488 3.31735 8.00488 3.75C8.00488 4.33016 8.23535 4.88656 8.64559 5.2968C9.05582 5.70703 9.61222 5.9375 10.1924 5.9375ZM10.1924 14.0625C9.75974 14.0625 9.33681 14.1908 8.97707 14.4312C8.61734 14.6715 8.33696 15.0132 8.1714 15.4129C8.00583 15.8126 7.96251 16.2524 8.04692 16.6768C8.13132 17.1011 8.33966 17.4909 8.64559 17.7968C8.95152 18.1027 9.34129 18.3111 9.76562 18.3955C10.19 18.4799 10.6298 18.4366 11.0295 18.271C11.4292 18.1054 11.7709 17.825 12.0112 17.4653C12.2516 17.1056 12.3799 16.6826 12.3799 16.25C12.3799 15.6698 12.1494 15.1134 11.7392 14.7032C11.3289 14.293 10.7725 14.0625 10.1924 14.0625Z" fill="#81818D" style="fill:#81818D;fill:color(display-p3 0.5059 0.5059 0.5529);fill-opacity:1;"/>
</svg>
