<svg width="19" height="20" viewBox="0 0 19 20" fill="none" xmlns="http://www.w3.org/2000/svg">
<path d="M0.912109 5.00008C0.912109 4.11603 1.2633 3.26818 1.88842 2.64306C2.51354 2.01794 3.36139 1.66675 4.24544 1.66675H14.2454C15.1295 1.66675 15.9773 2.01794 16.6025 2.64306C17.2276 3.26818 17.5788 4.11603 17.5788 5.00008V15.0001C17.5788 15.8841 17.2276 16.732 16.6025 17.3571C15.9773 17.9822 15.1295 18.3334 14.2454 18.3334H4.24544C3.36139 18.3334 2.51354 17.9822 1.88842 17.3571C1.2633 16.732 0.912109 15.8841 0.912109 15.0001V5.00008Z" stroke="#543C52" style="stroke:#543C52;stroke:color(display-p3 0.3294 0.2353 0.3216);stroke-opacity:1;" stroke-width="1.66667" stroke-linecap="round" stroke-linejoin="round"/>
<path d="M6.32845 9.16679C7.47904 9.16679 8.41178 8.23405 8.41178 7.08346C8.41178 5.93286 7.47904 5.00012 6.32845 5.00012C5.17786 5.00012 4.24512 5.93286 4.24512 7.08346C4.24512 8.23405 5.17786 9.16679 6.32845 9.16679Z" stroke="#543C52" style="stroke:#543C52;stroke:color(display-p3 0.3294 0.2353 0.3216);stroke-opacity:1;" stroke-width="1.66667" stroke-linecap="round" stroke-linejoin="round"/>
<path d="M11.3501 10.5176L4.24512 18.3334H14.3559C15.2106 18.3334 16.0303 17.9939 16.6346 17.3896C17.2389 16.7852 17.5785 15.9656 17.5785 15.1109V15.0001C17.5785 14.6118 17.4326 14.4626 17.1701 14.1751L13.8118 10.5126C13.6553 10.3418 13.4649 10.2056 13.2528 10.1126C13.0406 10.0195 12.8115 9.9717 12.5798 9.97217C12.3482 9.97264 12.1192 10.0214 11.9075 10.1153C11.6958 10.2092 11.5059 10.3462 11.3501 10.5176Z" stroke="#543C52" style="stroke:#543C52;stroke:color(display-p3 0.3294 0.2353 0.3216);stroke-opacity:1;" stroke-width="1.66667" stroke-linecap="round" stroke-linejoin="round"/>
</svg>
