<svg width="21" height="20" viewBox="0 0 21 20" fill="none" xmlns="http://www.w3.org/2000/svg">
<g clip-path="url(#clip0_995_1382)">
<g clip-path="url(#clip1_995_1382)">
<path d="M2.41309 10.0001C2.41309 10.0001 4.91309 4.16675 10.7464 4.16675C16.5798 4.16675 19.0798 10.0001 19.0798 10.0001C19.0798 10.0001 16.5798 15.8334 10.7464 15.8334C4.91309 15.8334 2.41309 10.0001 2.41309 10.0001Z" stroke="#81818D" style="stroke:#81818D;stroke:color(display-p3 0.5059 0.5059 0.5529);stroke-opacity:1;" stroke-width="2" stroke-linecap="round" stroke-linejoin="round"/>
<path d="M10.7464 12.5001C12.1271 12.5001 13.2464 11.3808 13.2464 10.0001C13.2464 8.61937 12.1271 7.50008 10.7464 7.50008C9.36571 7.50008 8.24642 8.61937 8.24642 10.0001C8.24642 11.3808 9.36571 12.5001 10.7464 12.5001Z" stroke="#81818D" style="stroke:#81818D;stroke:color(display-p3 0.5059 0.5059 0.5529);stroke-opacity:1;" stroke-width="2" stroke-linecap="round" stroke-linejoin="round"/>
</g>
</g>
<defs>
<clipPath id="clip0_995_1382">
<rect width="20" height="20" fill="white" style="fill:white;fill-opacity:1;" transform="translate(0.746094)"/>
</clipPath>
<clipPath id="clip1_995_1382">
<rect width="20" height="20" fill="white" style="fill:white;fill-opacity:1;" transform="translate(0.746094)"/>
</clipPath>
</defs>
</svg>
