<svg width="41" height="40" viewBox="0 0 41 40" fill="none" xmlns="http://www.w3.org/2000/svg">
<rect x="0.746094" y="0.5" width="39" height="39" rx="19.5" stroke="#543C52" style="stroke:#543C52;stroke:color(display-p3 0.3294 0.2353 0.3216);stroke-opacity:1;"/>
<path d="M11.9121 15.0001C11.9121 14.116 12.2633 13.2682 12.8884 12.6431C13.5135 12.0179 14.3614 11.6667 15.2454 11.6667H25.2454C26.1295 11.6667 26.9773 12.0179 27.6025 12.6431C28.2276 13.2682 28.5788 14.116 28.5788 15.0001V25.0001C28.5788 25.8841 28.2276 26.732 27.6025 27.3571C26.9773 27.9822 26.1295 28.3334 25.2454 28.3334H15.2454C14.3614 28.3334 13.5135 27.9822 12.8884 27.3571C12.2633 26.732 11.9121 25.8841 11.9121 25.0001V15.0001Z" stroke="#543C52" style="stroke:#543C52;stroke:color(display-p3 0.3294 0.2353 0.3216);stroke-opacity:1;" stroke-width="1.66667" stroke-linecap="round" stroke-linejoin="round"/>
<path d="M17.3285 19.1668C18.479 19.1668 19.4118 18.234 19.4118 17.0835C19.4118 15.9329 18.479 15.0001 17.3285 15.0001C16.1779 15.0001 15.2451 15.9329 15.2451 17.0835C15.2451 18.234 16.1779 19.1668 17.3285 19.1668Z" stroke="#543C52" style="stroke:#543C52;stroke:color(display-p3 0.3294 0.2353 0.3216);stroke-opacity:1;" stroke-width="1.66667" stroke-linecap="round" stroke-linejoin="round"/>
<path d="M22.3501 20.5176L15.2451 28.3334H25.3559C26.2106 28.3334 27.0303 27.9939 27.6346 27.3896C28.2389 26.7852 28.5785 25.9656 28.5785 25.1109V25.0001C28.5785 24.6118 28.4326 24.4626 28.1701 24.1751L24.8118 20.5126C24.6553 20.3418 24.4649 20.2056 24.2528 20.1126C24.0406 20.0195 23.8115 19.9717 23.5798 19.9722C23.3482 19.9726 23.1192 20.0214 22.9075 20.1153C22.6958 20.2092 22.5059 20.3462 22.3501 20.5176Z" stroke="#543C52" style="stroke:#543C52;stroke:color(display-p3 0.3294 0.2353 0.3216);stroke-opacity:1;" stroke-width="1.66667" stroke-linecap="round" stroke-linejoin="round"/>
</svg>
