<svg width="21" height="20" viewBox="0 0 21 20" fill="none" xmlns="http://www.w3.org/2000/svg">
<path d="M19.2617 6.98984C19.0564 6.75722 18.8039 6.57094 18.521 6.44338C18.2382 6.31583 17.9314 6.24991 17.6211 6.25H13.5586V5.3125C13.5576 4.40114 13.1951 3.52739 12.5506 2.88296C11.9062 2.23853 11.0325 1.87603 10.1211 1.875C9.94706 1.87502 9.77647 1.92348 9.62841 2.01496C9.48036 2.10645 9.36069 2.23733 9.28281 2.39297L6.41641 8.125H3.24609C2.83169 8.125 2.43427 8.28962 2.14124 8.58265C1.84821 8.87567 1.68359 9.2731 1.68359 9.6875V16.5625C1.68359 16.9769 1.84821 17.3743 2.14124 17.6674C2.43427 17.9604 2.83169 18.125 3.24609 18.125H16.6836C17.2168 18.1249 17.7315 17.9301 18.1312 17.5772C18.5308 17.2243 18.7878 16.7376 18.8539 16.2086L19.7914 8.70859C19.83 8.40093 19.8027 8.08858 19.7114 7.79226C19.6201 7.49595 19.4668 7.22243 19.2617 6.98984ZM3.55859 10H6.05859V16.25H3.55859V10ZM17.9336 8.47656L16.9961 15.9766C16.9865 16.0525 16.9494 16.1223 16.8918 16.1727C16.8342 16.2231 16.7601 16.2506 16.6836 16.25H7.93359V9.28359L10.6539 3.84375C10.9556 3.95319 11.2163 4.15287 11.4005 4.41565C11.5847 4.67843 11.6836 4.99157 11.6836 5.3125V7.1875C11.6836 7.43614 11.7824 7.6746 11.9582 7.85041C12.134 8.02623 12.3725 8.125 12.6211 8.125H17.6211C17.6656 8.12465 17.7097 8.13383 17.7504 8.15192C17.7912 8.17 17.8275 8.19659 17.8571 8.22988C17.8867 8.26317 17.9088 8.3024 17.922 8.34495C17.9352 8.3875 17.9392 8.43237 17.9336 8.47656Z" fill="#81818D" style="fill:#81818D;fill:color(display-p3 0.5059 0.5059 0.5529);fill-opacity:1;"/>
</svg>
