<svg width="17" height="20" viewBox="0 0 17 20" fill="none" xmlns="http://www.w3.org/2000/svg">
<path d="M15.5767 8.63009L2.44703 1.13791C2.1702 0.982835 1.85271 0.915722 1.53681 0.945492C1.22091 0.975263 0.921555 1.10051 0.678569 1.30456C0.435584 1.50862 0.260483 1.78182 0.176557 2.08782C0.0926304 2.39382 0.103857 2.71813 0.208744 3.01759L2.56656 9.99884L0.208744 16.9801C0.12585 17.2156 0.100604 17.4676 0.13512 17.7148C0.169636 17.9621 0.26291 18.1975 0.407128 18.4014C0.551345 18.6052 0.742306 18.7715 0.964014 18.8863C1.18572 19.0011 1.43172 19.0611 1.6814 19.0613C1.9499 19.0608 2.21377 18.9914 2.44781 18.8598L2.45484 18.8551L15.5798 11.3496C15.8205 11.2134 16.0207 11.0158 16.16 10.7769C16.2992 10.538 16.3726 10.2664 16.3726 9.98986C16.3726 9.71333 16.2992 9.44175 16.16 9.20286C16.0207 8.96396 15.8205 8.76631 15.5798 8.63009H15.5767ZM2.24312 16.816L4.22906 10.9363H8.5564C8.80504 10.9363 9.0435 10.8376 9.21931 10.6618C9.39513 10.4859 9.4939 10.2475 9.4939 9.99884C9.4939 9.7502 9.39513 9.51175 9.21931 9.33593C9.0435 9.16011 8.80504 9.06134 8.5564 9.06134H4.22906L2.24234 3.18009L14.1767 9.99025L2.24312 16.816Z" fill="white" style="fill:white;fill-opacity:1;"/>
</svg>
