<svg width="41" height="40" viewBox="0 0 41 40" fill="none" xmlns="http://www.w3.org/2000/svg">
<rect x="0.746094" y="0.5" width="39" height="39" rx="19.5" stroke="#543C52" style="stroke:#543C52;stroke:color(display-p3 0.3294 0.2353 0.3216);stroke-opacity:1;"/>
<path d="M20.2461 11.3301C22.5447 11.3326 24.7487 12.2467 26.374 13.8721C27.9994 15.4974 28.9135 17.7014 28.916 20C28.916 21.7146 28.4076 23.3907 27.4551 24.8164C26.5024 26.2422 25.1477 27.3536 23.5635 28.0098C21.9793 28.6659 20.2364 28.8374 18.5547 28.5029C16.8729 28.1684 15.3277 27.3434 14.1152 26.1309C12.9027 24.9184 12.0777 23.3732 11.7432 21.6914C11.4087 20.0097 11.5802 18.2668 12.2363 16.6826C12.8925 15.0984 14.0039 13.7437 15.4297 12.791C16.7662 11.8981 18.3227 11.3953 19.9248 11.3359L20.2461 11.3301ZM22.8584 13.6934C21.611 13.1767 20.2383 13.0413 18.9141 13.3047C17.5899 13.5681 16.3736 14.2182 15.4189 15.1729C14.4643 16.1275 13.8142 17.3438 13.5508 18.668C13.2874 19.9922 13.4228 21.3649 13.9395 22.6123C14.4561 23.8596 15.3307 24.9257 16.4531 25.6758C17.5758 26.4259 18.8959 26.8262 20.2461 26.8262C22.056 26.8242 23.7915 26.105 25.0713 24.8252C26.3511 23.5454 27.0703 21.8099 27.0723 20C27.0723 18.6498 26.672 17.3297 25.9219 16.207C25.1718 15.0846 24.1057 14.21 22.8584 13.6934ZM23.5996 21.0078C23.7211 21.0233 23.8383 21.0628 23.9443 21.124C24.0503 21.1852 24.1428 21.2669 24.2168 21.3643C24.2909 21.4617 24.3454 21.5728 24.376 21.6914C24.4066 21.81 24.4132 21.9335 24.3955 22.0547C24.3779 22.1758 24.3366 22.2926 24.2734 22.3975H24.2725C23.3925 23.9221 21.9233 24.7959 20.2461 24.7959C18.6735 24.7959 17.2859 24.0289 16.3916 22.6758L16.2197 22.3975C16.1033 22.1864 16.0742 21.9383 16.1387 21.7061C16.2033 21.4734 16.3563 21.2751 16.5654 21.1543C16.7746 21.0335 17.023 20.9992 17.2568 21.0596C17.4902 21.1198 17.6908 21.2693 17.8154 21.4756V21.4766C18.1328 22.0256 18.8736 22.9521 20.2461 22.9521C21.6187 22.9521 22.3594 22.0248 22.6768 21.4766V21.4756C22.736 21.3685 22.8161 21.2741 22.9121 21.1982C23.0081 21.1225 23.1186 21.067 23.2363 21.0342C23.3543 21.0014 23.4781 20.9924 23.5996 21.0078ZM17.583 17.165C17.8244 17.2131 18.0467 17.3318 18.2207 17.5059C18.3946 17.6798 18.5135 17.9014 18.5615 18.1426C18.6095 18.384 18.5844 18.6349 18.4902 18.8623C18.396 19.0896 18.2368 19.2842 18.0322 19.4209C17.8277 19.5576 17.5868 19.6298 17.3408 19.6299C17.0108 19.6299 16.6943 19.4989 16.4609 19.2656C16.2275 19.0322 16.0957 18.7158 16.0957 18.3857C16.0957 18.1396 16.1689 17.899 16.3057 17.6943C16.4424 17.4897 16.6369 17.3305 16.8643 17.2363C17.0916 17.1422 17.3417 17.1171 17.583 17.165ZM23.1514 17.1416C23.4813 17.1416 23.7979 17.2726 24.0312 17.5059C24.2646 17.7392 24.3965 18.0557 24.3965 18.3857C24.3965 18.6319 24.3232 18.8725 24.1865 19.0771C24.0498 19.2818 23.8553 19.441 23.6279 19.5352C23.4006 19.6293 23.1505 19.6544 22.9092 19.6064C22.6678 19.5584 22.4455 19.4397 22.2715 19.2656C22.0976 19.0917 21.9787 18.8701 21.9307 18.6289C21.8826 18.3875 21.9078 18.1366 22.002 17.9092C22.0962 17.6819 22.2554 17.4873 22.46 17.3506C22.6645 17.2139 22.9053 17.1417 23.1514 17.1416Z" fill="#543C52" stroke="#543C52" style="fill:#543C52;fill:color(display-p3 0.3294 0.2353 0.3216);fill-opacity:1;stroke:#543C52;stroke:color(display-p3 0.3294 0.2353 0.3216);stroke-opacity:1;" stroke-width="0.09375"/>
</svg>
